<?xml version="1.0" standalone="no"?>
<!DOCTYPE svg PUBLIC "-//W3C//DTD SVG 20010904//EN"
 "http://www.w3.org/TR/2001/REC-SVG-20010904/DTD/svg10.dtd">
<svg version="1.0" xmlns="http://www.w3.org/2000/svg"
 width="1024.000000pt" height="1024.000000pt" viewBox="0 0 1024.000000 1024.000000"
 preserveAspectRatio="xMidYMid meet">
<metadata>
Created by potrace 1.14, written by Peter Selinger 2001-2017
</metadata>
<g transform="translate(0.000000,1024.000000) scale(0.100000,-0.100000)"
fill="#000000" stroke="none">
<path d="M4855 9600 c-762 -44 -1530 -294 -2162 -706 -290 -188 -497 -356
-744 -603 -245 -245 -402 -438 -583 -713 -564 -860 -816 -1895 -710 -2918 145
-1405 937 -2653 2150 -3386 560 -338 1182 -546 1859 -620 222 -24 688 -24 910
0 643 70 1241 262 1774 570 1582 913 2453 2665 2221 4470 -102 792 -417 1550
-904 2175 -915 1174 -2327 1815 -3811 1731z m2003 -1782 c-8 -13 -89 -147
-180 -298 -187 -311 -192 -324 -164 -457 36 -173 151 -294 363 -380 189 -77
379 -76 473 3 16 14 115 173 221 354 106 182 195 330 199 330 9 0 59 -110 77
-169 16 -54 17 -259 2 -421 -27 -299 -121 -494 -301 -620 -126 -89 -232 -118
-468 -130 -265 -13 -430 -47 -619 -128 -170 -74 -212 -108 -589 -472 l-353
-342 -76 36 c-92 44 -178 104 -258 183 -70 66 -167 182 -163 192 8 16 465 457
553 532 244 210 356 372 406 589 6 25 12 137 13 250 3 238 15 301 77 421 62
118 192 233 465 412 185 121 219 137 283 137 53 0 53 0 39 -22z m-3760 -287
c161 -149 1499 -1478 1626 -1616 l111 -121 17 -82 c9 -45 33 -115 52 -156 107
-222 382 -483 573 -543 48 -15 56 -15 86 -1 21 10 40 12 54 7 32 -12 75 -82
76 -124 1 -32 -8 -44 -85 -122 l-85 -85 476 -472 c1156 -1144 1055 -1048 1156
-1095 50 -23 106 -50 125 -59 37 -17 198 -173 347 -338 l92 -100 -119 -119
c-108 -108 -120 -117 -137 -104 -10 8 -99 87 -199 176 -191 170 -223 210 -274
332 -16 41 -47 95 -68 120 -20 25 -248 255 -507 510 -258 256 -595 589 -747
740 l-278 275 -88 -87 c-63 -61 -97 -87 -114 -87 -34 0 -108 40 -131 71 -18
25 -18 28 -2 58 28 56 -8 147 -114 288 -161 214 -399 381 -599 420 -80 16 -83
17 -169 96 -176 160 -591 564 -1171 1142 l-594 590 4 45 c11 112 122 278 271
405 71 61 222 133 280 134 22 1 51 -21 135 -98z m1635 -2610 c95 -91 165 -182
212 -278 l36 -71 -138 -134 c-76 -73 -201 -194 -278 -269 -77 -75 -201 -193
-275 -263 -74 -70 -152 -152 -172 -183 -72 -108 -130 -317 -144 -511 -20 -282
-139 -500 -348 -640 -191 -128 -436 -174 -642 -122 -359 90 -604 398 -604 760
0 134 23 232 87 360 40 82 60 108 142 190 77 76 114 105 187 143 128 66 215
86 414 97 127 6 180 13 230 30 152 51 152 51 659 556 l475 473 40 -32 c23 -18
76 -66 119 -106z"/>
<path d="M2994 3712 l-201 -76 -88 -194 -87 -195 77 -197 77 -198 196 -87 196
-86 66 25 c36 13 126 47 201 75 l136 52 87 194 88 194 -77 198 -77 198 -147
64 c-80 35 -169 74 -196 86 l-50 23 -201 -76z"/>
</g>
</svg>
